# xmcd CD database file
#
# Track frame offsets:
#	150
#	14792
#	27850
#	43927
#	60141
#	86333
#	99153
#	117338
#	144692
#	158887
#	182871
#
# Disc length: 2739 seconds
#
# Revision: 0
# Processed by: cddbd v1.5.1PL0 Copyright (c) Steve Scherf et al.
# Submitted via: CDex 1.51
#
DISCID=8b0ab10b
DTITLE=Clay Farmer - Another Day
DYEAR=2005
DGENRE=Country
TTITLE0=Crippled Picket Fences
TTITLE1=Come To Me
TTITLE2=Ruby Red Lips
TTITLE3=Mean Mistreated
TTITLE4=Rock, Salt and Nails
TTITLE5=Dying Day
TTITLE6=A Lover
TTITLE7=Snow Leopard
TTITLE8=Older and Older
TTITLE9=AnotherDay
TTITLE10=Cotton Top
EXTD=YEAR: 2005
EXTT0=
EXTT1=
EXTT2=
EXTT3=
EXTT4=
EXTT5=
EXTT6=
EXTT7=
EXTT8=
EXTT9=
EXTT10=
PLAYORDER=
